<svg xmlns="http://www.w3.org/2000/svg" viewBox="0 0 128 128">
  <style>
    .primary { fill: #0ea5e9; }
    .secondary { fill: #075985; }
    @media (prefers-color-scheme: dark) {
      .primary { fill: #38bdf8; }
      .secondary { fill: #0ea5e9; }
    }
  </style>
  <rect x="0" y="0" width="128" height="128" rx="24" class="secondary" />
  <g transform="translate(24, 30)">
    <path class="primary" d="M14.5 65.7c-3.2 0-5.8-0.8-7.8-2.4C4.7 61.7 3.7 59.2 3.7 56c0-1.1 0.1-2.1 0.4-3L15.4 13c0.3-1.1 0.9-2 1.8-2.6c0.9-0.6 1.9-0.9 3.1-0.9h8.5c1.5 0 2.5 0.3 3.1 1c0.6 0.7 0.6 1.7 0.2 3l-10 40c-0.3 1.1-0.9 2-1.8 2.6c-0.9 0.6-1.9 0.9-3.1 0.9h-2.7z" />
    <path class="primary" d="M62.5 67c-3.8 0-6.9-0.9-9.2-2.8c-2.3-1.9-3.5-4.5-3.5-7.8c0-0.9 0.1-1.9 0.3-2.9L60.9 13c0.3-1.1 0.9-2 1.8-2.6c0.9-0.6 1.9-0.9 3.1-0.9h8.5c1.5 0 2.5 0.3 3.1 1c0.6 0.7 0.6 1.7 0.2 3l-10.8 40.5c-0.3 1.1-0.9 2-1.8 2.6c-0.9 0.6-1.9 0.9-3.1 0.9c0.2-0.1 0.6-0.5 1.1-1.4c0.5-0.8 1-2 1.5-3.6l8.4-36.4c0.1-0.4 0.1-0.7 0-1c-0.1-0.3-0.3-0.4-0.7-0.4h-3.5c-0.4 0-0.7 0.1-0.9 0.3c-0.2 0.2-0.3 0.4-0.4 0.7l-8.4 36.4c-0.2 1-0.4 1.8-0.4 2.3c0 0.9 0.3 1.5 0.9 1.8c0.6 0.3 1.4 0.5 2.3 0.5h6.6c1.1 0 1.9-0.2 2.4-0.7c0.5-0.5 0.9-1.2 1.1-2.1l2.4-9.1h-5.4c-0.6 0-1-0.1-1.3-0.4c-0.2-0.3-0.2-0.7 0-1.2l1.5-5.6c0.2-0.6 0.5-1 0.9-1.3c0.4-0.3 1-0.4 1.6-0.4h15.4c0.6 0 1 0.1 1.3 0.4c0.2 0.3 0.2 0.7 0 1.2l-5.1 19.2c-0.8 3.2-2.2 5.5-4.2 7c-2 1.5-4.7 2.2-8 2.2H62.5z" />
  </g>
</svg>
